<svg width="60" height="60" xmlns="http://www.w3.org/2000/svg"><g fill="none" fill-rule="evenodd"><circle cx="28" cy="28" r="28" transform="translate(2 2)" fill="#940925"/><g transform="rotate(-180 16 19.6)" fill="#F3F3F3"><path d="M2 6.1a2 2 0 0 1 2 2v8a2 2 0 1 1-4 0v-8a2 2 0 0 1 2-2Z"/><circle cx="2" cy="2" r="2"/></g><path d="M30 58C14.536 58 2 45.464 2 30S14.536 2 30 2s28 12.536 28 28-12.536 28-28 28M0 30c0 16.569 13.431 30 30 30 16.569 0 30-13.431 30-30C60 13.431 46.569 0 30 0 13.431 0 0 13.431 0 30Z" fill="#FFF"/></g></svg>