<svg id="Ebene_2" data-name="Ebene 2" xmlns="http://www.w3.org/2000/svg" viewBox="0 0 817.28 329.46"><defs><style>.cls-1{fill:#fff}</style></defs><g id="Ebene_1-2" data-name="Ebene 1"><path class="cls-1" d="M251.57 6.2v285.76c0 1.7-.67 3.23-1.77 4.34l-.02.02c-.49.5-1.07.92-1.72 1.2-.77.38-1.62.58-2.53.58h-38.62c-3.33 0-6.04-2.75-6.04-6.14V6.2c0-3.4 2.71-6.14 6.04-6.14h38.62c3.34 0 6.04 2.75 6.04 6.14ZM423.29 255.34h-74.12c-.12 0-.24-.01-.36-.02a6.022 6.022 0 0 1-5.29-4.84l-.05-244.43c0-3.34-2.7-6.04-6.04-6.04h-38.62c-3.33 0-6.04 2.7-6.04 6.04v286.06c0 3.34 2.71 6.04 6.04 6.04l124.48.08c3.34 0 6.04-2.71 6.04-6.04v-30.8c0-3.34-2.7-6.04-6.04-6.04ZM170.11 289.24 91.87 146.76c-.99-1.8-.99-3.98 0-5.78l72.6-132.12c1.57-2.92.47-6.57-2.45-8.14-.88-.47-1.85-.72-2.85-.71h-43.81a6.05 6.05 0 0 0-5.28 3.09L50.7 111.19V6.04C50.7 2.71 48 0 44.66 0H6.04C2.7 0 0 2.71 0 6.04v286.07c0 3.34 2.7 6.04 6.04 6.04h38.62c3.34 0 6.04-2.71 6.04-6.04v-65.95l-17.97-82.27 83 151.17a6.03 6.03 0 0 0 5.28 3.09h43.81a6.01 6.01 0 0 0 5.28-8.92ZM569.25 6.04v30.9c0 3.34-2.7 6.04-6.04 6.04l-74.82-.05 23.78 16.75c.8.56 1.27 1.48 1.27 2.45V292.1c0 3.33-2.7 6.04-6.04 6.04h-37.97c-3.34 0-6.04-2.71-6.04-6.04V48.99c0-3.12-2.37-5.68-5.4-5.99-.12-.01-.24-.02-.36-.02h-44.01c-3.34 0-6.04-2.7-6.04-6.04V6.04c0-3.33 2.7-6.04 6.04-6.04h149.59c3.34 0 6.04 2.71 6.04 6.04ZM722.21 32.27l-54.3 38.02-36.43-25.51V6.34c0-3.39 3.33-6.14 7.42-6.14h37.51l45.8 32.07ZM731.83 269.61l41.47 29.04h36.48c1.11 0 2.16-.2 3.1-.58.8-.28 1.52-.7 2.12-1.2l.02-.02c1.35-1.11 2.18-2.64 2.18-4.34v-39.16l-31.07-21.76-54.3 38.02ZM817.26 5.06v39.71l-167.9 117.56c-10.93 8.64-17.94 21.95-17.94 36.92V98.84l141-98.73h37.8c3.51.09 6.4 2.19 7.04 4.95Z"/><path class="cls-1" d="m786.13 77.03 31.04 21.72c-.88 14.26-8.13 26.81-18.95 34.86-.03.02-.06.05-.09.07l-19.84 13.89-46.46-32.52 54.3-38.02ZM817.26 100.67v-1.85s.04.67 0 1.85ZM722.21 186.84l-54.3 38.02-35.49-24.85c2.31-10.96 8.44-20.5 16.94-27.22l26.39-18.48 46.46 32.53Z"/><path class="cls-1" d="M798.22 136.61s-.06.05-.09.07L631.42 253.41v76.05L817.2 200.19l.06-101.37c0 15.47-7.48 29.19-19.04 37.79Z"/><path d="M817.26 95.82v3l-.09-.07c.06-.97.09-1.95.09-2.93Z" style="fill:#ffed00;opacity:.51"/></g></svg>